<svg width="137" height="30" fill="none" xmlns="http://www.w3.org/2000/svg"><path d="M137 29.056h-3.741l-6.392-7.492-6.361 7.492h-3.719l8.214-9.678-7.768-9.101h3.741l5.888 6.903 5.859-6.903h3.72l-7.714 9.09L137 29.054v.002zM105.364 30c-5.803 0-10.506-4.628-10.506-10.335 0-5.706 4.705-10.33 10.507-10.33s10.505 4.625 10.505 10.331c0 5.708-4.704 10.334-10.508 10.334h.002zm.021-17.874c-3.096 0-5.885 1.832-7.07 4.644a7.43 7.43 0 001.659 8.2 7.75 7.75 0 008.337 1.63 7.542 7.542 0 003.424-2.758 7.508 7.508 0 001.298-4.194c0-4.155-3.425-7.522-7.648-7.522zM81.002 29.52c-5.88 0-7.644-1.41-7.644-1.41V.86h2.867v9.88a10.9 10.9 0 014.777-.96c5.805 0 10.511 4.158 10.511 9.861 0 5.705-4.71 9.879-10.514 9.879h.003zm0-16.916a8.616 8.616 0 00-4.777 1.523v11.634a9.801 9.801 0 004.777.94c4.221 0 7.645-2.9 7.645-7.048 0-4.147-3.427-7.05-7.648-7.05l.003.002zM63.802.858h2.867V29.05h-2.866V.858zm-9.554 0h2.866V29.05h-2.866V.858zM46.03 5.055a2.371 2.371 0 01-1.676-.68 2.356 2.356 0 01-.703-1.66c0-1.29 1.066-2.338 2.379-2.338 1.314 0 2.378 1.048 2.378 2.34 0 .619-.25 1.215-.697 1.654a2.398 2.398 0 01-1.681.684zM36.569 29.05l-10.027-9.86 9.076-8.935h4.053l-9.078 8.934L40.62 29.05h-4.051zm-12.901 0V.858h2.866V29.05h-2.866zm-4.54-7.668c0 4.712-3.816 8.13-9.877 8.13A13.304 13.304 0 010 25.427l2.026-2.206c1.897 1.776 4.13 3.503 7.186 3.503 3.395 0 7.055-1.872 7.055-5.235 0-2.791-2.257-4.614-7-6.051-5.404-1.622-8.147-3.825-8.147-7.971C1.12 3.366 4.65 0 9.677 0c3.757 0 6.107 1.575 8.393 3.585L16.08 5.763C14.073 4.014 12.16 2.83 9.816 2.83c-2.907 0-5.78 1.846-5.78 4.5 0 2.406 1.406 3.94 6.372 5.434 4.546 1.377 8.72 3.51 8.72 8.619zm28.438 7.668h-2.868V10.255h2.867V29.05h.001z" fill="#333"/></svg>